<svg width="25" height="25" viewBox="0 0 25 25" xmlns="http://www.w3.org/2000/svg"><path d="M14.8085 6.18311H10.6085L6.7085 10.0831V14.2831L10.6085 18.1831H14.8085L18.7085 14.2831V10.0831L14.8085 6.18311ZM11.9085 8.28311H13.4085V10.7831L13.2085 13.6831H12.2085L11.9085 10.7831V8.28311ZM13.3085 15.9831C13.1085 16.0831 12.9085 16.1831 12.7085 16.1831C12.5085 16.1831 12.3085 16.0831 12.1085 15.8831C11.9085 15.7831 11.9085 15.5831 11.9085 15.3831C11.9085 15.1831 12.0085 14.9831 12.2085 14.7831C12.3085 14.5831 12.5085 14.4831 12.7085 14.4831C12.9085 14.4831 13.1085 14.5831 13.3085 14.6831C13.5085 14.8831 13.5085 15.0831 13.5085 15.2831C13.5085 15.5831 13.5085 15.7831 13.3085 15.9831Z"/></svg>