<svg width="28" height="51" viewBox="0 0 28 51" xmlns="http://www.w3.org/2000/svg"><path d="M0.975191 48.9929V1.78249C0.973434 1.59884 1.00831 1.41669 1.07778 1.24668C1.14725 1.07667 1.24992 0.922213 1.37978 0.792349C1.50965 0.662484 1.6641 0.559816 1.83411 0.490346C2.00412 0.420877 2.18628 0.386001 2.36992 0.387759H25.8962C26.0798 0.386001 26.262 0.420877 26.432 0.490346C26.602 0.559816 26.7565 0.662484 26.8863 0.792349C27.0162 0.922213 27.1189 1.07667 27.1883 1.24668C27.2578 1.41669 27.2927 1.59884 27.2909 1.78249V48.9929C27.2927 49.1765 27.2578 49.3587 27.1883 49.5287C27.1189 49.6987 27.0162 49.8532 26.8863 49.983C26.7565 50.1129 26.602 50.2156 26.432 50.285C26.262 50.3545 26.0798 50.3894 25.8962 50.3876H2.36992C2.18628 50.3894 2.00412 50.3545 1.83411 50.285C1.6641 50.2156 1.50965 50.1129 1.37978 49.983C1.24992 49.8532 1.14725 49.6987 1.07778 49.5287C1.00831 49.3587 0.973434 49.1765 0.975191 48.9929ZM3.60676 47.3613C3.60493 47.4137 3.61388 47.4658 3.63307 47.5145C3.65225 47.5633 3.68126 47.6075 3.71829 47.6445C3.75532 47.6816 3.79957 47.7106 3.84829 47.7298C3.89702 47.7489 3.94917 47.7579 4.0015 47.7561H24.2646C24.3079 47.7544 24.3502 47.7426 24.3881 47.7216C24.426 47.7006 24.4585 47.671 24.4828 47.6351C24.5071 47.5992 24.5227 47.5581 24.5282 47.5152C24.5337 47.4722 24.5291 47.4285 24.5146 47.3876C22.2909 41.9929 18.0804 38.6508 3.92255 38.2956H3.60676V47.3613ZM16.4357 36.7298C15.7383 36.9271 14.9752 37.085 14.9752 37.2166C14.9752 37.3482 15.7383 37.5061 16.4357 37.7035C19.542 38.387 22.325 40.1031 24.3304 42.5719L24.462 42.7429C24.5804 42.9008 24.712 42.8876 24.712 42.7429V31.7166C24.712 31.4666 24.5541 31.5324 24.462 31.7166L24.3304 31.8745C22.3074 34.3205 19.5313 36.0278 16.4357 36.7298ZM4.0015 26.7035C3.94917 26.7016 3.89702 26.7106 3.84829 26.7298C3.79957 26.749 3.75532 26.778 3.71829 26.815C3.68126 26.852 3.65225 26.8963 3.63307 26.945C3.61388 26.9937 3.60493 27.0459 3.60676 27.0982V36.1771H3.92255C18.0409 35.8219 22.2646 32.4798 24.5146 27.0851C24.5317 27.0435 24.5385 26.9984 24.5342 26.9537C24.53 26.9089 24.5149 26.8659 24.4903 26.8283C24.4656 26.7907 24.4322 26.7597 24.3929 26.738C24.3536 26.7162 24.3095 26.7044 24.2646 26.7035H4.0015ZM24.6593 3.41407C24.6577 3.37076 24.6459 3.32844 24.6249 3.29054C24.6039 3.25263 24.5742 3.2202 24.5384 3.19587C24.5025 3.17153 24.4614 3.15597 24.4184 3.15045C24.3755 3.14492 24.3318 3.14959 24.2909 3.16407C18.8962 5.38775 15.5541 9.59826 15.1988 23.7561V24.0719H24.2778C24.3301 24.0737 24.3823 24.0648 24.431 24.0456C24.4797 24.0264 24.5239 23.9974 24.561 23.9604C24.598 23.9234 24.627 23.8791 24.6462 23.8304C24.6654 23.7817 24.6743 23.7295 24.6725 23.6772L24.6593 3.41407ZM3.60676 23.6772C3.60493 23.7295 3.61388 23.7817 3.63307 23.8304C3.65225 23.8791 3.68126 23.9234 3.71829 23.9604C3.75532 23.9974 3.79957 24.0264 3.84829 24.0456C3.89702 24.0648 3.94917 24.0737 4.0015 24.0719H13.0804V23.7561C12.712 9.59826 9.36991 5.41406 3.97519 3.16407C3.93433 3.14959 3.89065 3.14492 3.84766 3.15045C3.80468 3.15597 3.76359 3.17153 3.72773 3.19587C3.69187 3.2202 3.66223 3.25263 3.64122 3.29054C3.62021 3.32844 3.6084 3.37076 3.60676 3.41407V23.6772ZM8.73833 3.01933C8.54096 3.01933 8.48833 3.20354 8.58044 3.26933L8.73833 3.40091C11.1975 5.41928 12.9187 8.19546 13.6331 11.2956C13.8173 11.993 13.9752 12.7561 14.1199 12.7561C14.2646 12.7561 14.4225 11.993 14.6067 11.2956C15.2932 8.19049 17.0088 5.40843 19.4751 3.40091L19.6462 3.26933C19.7383 3.20354 19.712 3.01933 19.5278 3.01933H8.73833Z"/></svg>