<?xml version="1.0" encoding="UTF-8"?>
<svg width="300px" height="132px" xmlns="http://www.w3.org/2000/svg" viewBox="0 0 168 74">
  <defs>
    <style>.cls-1{fill:#9a3323;}.cls-2{fill:#161514;}</style>
  </defs>
  <g id="ARTWORK">
    <path class="cls-1" d="M18,54.94V19.06A1.05,1.05,0,0,1,19.06,18H36.94A1.05,1.05,0,0,1,38,19.06V54.94A1.05,1.05,0,0,1,36.94,56H19.06A1.05,1.05,0,0,1,18,54.94Zm2-1.24a.29.29,0,0,0,.3.3H35.7a.21.21,0,0,0,.19-.28c-1.69-4.1-4.89-6.64-15.65-6.91H20Zm9.75-8.08c-.53.15-1.11.27-1.11.37s.58.22,1.11.37a10.69,10.69,0,0,1,6,3.7l.1.13c.09.12.19.11.19,0V41.81c0-.19-.12-.14-.19,0l-.1.12A10.92,10.92,0,0,1,29.75,45.62ZM20.3,38a.29.29,0,0,0-.3.3v6.9h.24c10.73-.27,13.94-2.81,15.65-6.91A.21.21,0,0,0,35.7,38ZM36,20.3a.21.21,0,0,0-.28-.19c-4.1,1.69-6.64,4.89-6.91,15.65V36h6.9a.29.29,0,0,0,.3-.3ZM20,35.7a.29.29,0,0,0,.3.3h6.9v-.24C26.92,25,24.38,21.82,20.28,20.11a.21.21,0,0,0-.28.19ZM23.9,20c-.15,0-.19.14-.12.19l.12.1a10.94,10.94,0,0,1,3.72,6c.14.53.26,1.11.37,1.11s.23-.58.37-1.11a10.72,10.72,0,0,1,3.7-6l.13-.1c.07-.05.05-.19-.09-.19Z"></path>
    <path class="cls-2" d="M68.91,32l4.28-10.1h.17L77.75,32H76.13l-.74-1.82H71.14L70.41,32Zm2.76-3.12h3.16l-1.08-2.72a7.17,7.17,0,0,1-.5-1.47l0,.11-.08.27a2.27,2.27,0,0,0-.11.34l-.14.39c0,.13-.09.26-.13.36Zm13,3.12V22h2.75a5.42,5.42,0,0,1,3.87,1.38A4.71,4.71,0,0,1,92.75,27a4.78,4.78,0,0,1-1.46,3.63A5.43,5.43,0,0,1,87.41,32Zm1.56-1.36h1.09a3.81,3.81,0,0,0,2.85-1,3.6,3.6,0,0,0,1-2.65,3.6,3.6,0,0,0-1-2.65,3.85,3.85,0,0,0-2.85-1H86.22Zm14,1.36V22h1.54V32Zm12.34.14a3.43,3.43,0,0,1-2.32-.72A3.52,3.52,0,0,1,109,29.09h1.54a1.93,1.93,0,0,0,.65,1.21,2.27,2.27,0,0,0,2.6.08,1.2,1.2,0,0,0,.48-1,1.28,1.28,0,0,0-.39-1,4.64,4.64,0,0,0-1.28-.76l-.67-.3a4.94,4.94,0,0,1-1.76-1.18,2.63,2.63,0,0,1-.66-1.75,2.44,2.44,0,0,1,.84-1.84,3,3,0,0,1,2.06-.7,2.78,2.78,0,0,1,3,2.54H114a1.47,1.47,0,0,0-.57-.9,1.69,1.69,0,0,0-.94-.28,1.43,1.43,0,0,0-1,.32,1.12,1.12,0,0,0-.4.83,1.18,1.18,0,0,0,.38.87,4.19,4.19,0,0,0,1.14.67l.65.29a5.79,5.79,0,0,1,2,1.3,2.68,2.68,0,0,1,.63,1.85,2.45,2.45,0,0,1-.91,2A3.53,3.53,0,0,1,112.6,32.14Zm14.8,0a5,5,0,0,1-3.67-1.46,4.91,4.91,0,0,1-1.5-3.68,4.93,4.93,0,0,1,1.5-3.68,5.34,5.34,0,0,1,7.32,0,4.93,4.93,0,0,1,1.5,3.68,4.91,4.91,0,0,1-1.5,3.68A5,5,0,0,1,127.4,32.14Zm-2.57-2.47a3.61,3.61,0,0,0,5.13,0,4.06,4.06,0,0,0,0-5.34,3.63,3.63,0,0,0-5.13,0,4,4,0,0,0,0,5.34Zm22.65,2.44L142,26.16,141,25.05a11.37,11.37,0,0,1,.1,1.44V32h-1.44V21.9h.21l5.51,5.93.93,1.11a12.42,12.42,0,0,1-.1-1.44V22h1.44V32.11ZM57.82,29.65h.37l-3.4-7.75h-.06l-2,10.1h1.47l1-5.92L57.87,32h.23l2.6-5.92L61.62,32h1.46L61.31,21.9h-.05ZM88.19,52.13a3.5,3.5,0,0,1-2.32-.71,3.54,3.54,0,0,1-1.25-2.33h1.54a1.93,1.93,0,0,0,.65,1.21,2,2,0,0,0,1.35.45,2,2,0,0,0,1.25-.38,1.2,1.2,0,0,0,.49-1,1.28,1.28,0,0,0-.39-1,4.73,4.73,0,0,0-1.29-.76l-.66-.3a5,5,0,0,1-1.77-1.18,2.65,2.65,0,0,1-.66-1.75A2.42,2.42,0,0,1,86,42.58a3,3,0,0,1,2.06-.7,2.78,2.78,0,0,1,3,2.53H89.54a1.45,1.45,0,0,0-.57-.89,1.62,1.62,0,0,0-.94-.29,1.48,1.48,0,0,0-1,.32,1.16,1.16,0,0,0-.4.84,1.21,1.21,0,0,0,.38.87,4.11,4.11,0,0,0,1.14.66l.65.3a5.65,5.65,0,0,1,2,1.3,2.66,2.66,0,0,1,.63,1.85,2.49,2.49,0,0,1-.9,2A3.63,3.63,0,0,1,88.19,52.13Zm-34-.13V42h3.35a4.13,4.13,0,0,1,2.64.79,2.87,2.87,0,0,1,1,2.38A3,3,0,0,1,60.66,47,3.09,3.09,0,0,1,59.17,48l2.35,4H59.74l-2.16-3.71H55.77V52Zm1.59-5h1.74c1.39,0,2.09-.6,2.09-1.81s-.7-1.81-2.09-1.81H55.8Zm17.39,5.15a5,5,0,0,1-3.67-1.45,5.26,5.26,0,0,1,0-7.36,5.32,5.32,0,0,1,7.32,0,5.29,5.29,0,0,1,0,7.36A5,5,0,0,1,73.19,52.13Zm-2.57-2.46a3.63,3.63,0,0,0,5.13,0,4.06,4.06,0,0,0,0-5.34,3.61,3.61,0,0,0-5.13,0,4,4,0,0,0,0,5.34ZM98.37,52V42h6.36v1.36h-4.8v3h4.25v1.34H99.93v3h5V52Z"></path>
  </g>
</svg>
